<?xml version="1.0" encoding="UTF-8"?>
<svg xmlns="http://www.w3.org/2000/svg" version="1.1" width="400" height="400" viewBox="0 0 400 400"><rect x="0" y="0" width="400" height="400" fill="#fefefe"/><g transform="scale(5.797)"><g transform="translate(4,4)"><path fill-rule="evenodd" d="M9 0L9 1L8 1L8 2L9 2L9 3L8 3L8 4L9 4L9 5L8 5L8 7L9 7L9 6L10 6L10 7L11 7L11 8L10 8L10 11L11 11L11 12L12 12L12 13L13 13L13 14L15 14L15 15L16 15L16 14L15 14L15 13L17 13L17 17L21 17L21 20L18 20L18 19L19 19L19 18L18 18L18 19L17 19L17 20L16 20L16 19L15 19L15 18L16 18L16 17L15 17L15 18L14 18L14 17L13 17L13 19L12 19L12 17L10 17L10 16L14 16L14 15L11 15L11 13L10 13L10 15L9 15L9 14L6 14L6 13L7 13L7 12L6 12L6 13L5 13L5 11L8 11L8 9L9 9L9 8L6 8L6 9L7 9L7 10L4 10L4 9L5 9L5 8L0 8L0 9L2 9L2 10L4 10L4 12L3 12L3 11L2 11L2 12L1 12L1 13L5 13L5 14L0 14L0 15L2 15L2 16L3 16L3 18L2 18L2 17L1 17L1 16L0 16L0 17L1 17L1 18L2 18L2 19L1 19L1 20L2 20L2 21L0 21L0 22L2 22L2 21L4 21L4 22L3 22L3 23L4 23L4 22L5 22L5 20L4 20L4 19L7 19L7 20L6 20L6 21L7 21L7 22L6 22L6 23L7 23L7 22L9 22L9 23L8 23L8 24L6 24L6 25L5 25L5 24L4 24L4 25L2 25L2 26L0 26L0 29L1 29L1 31L0 31L0 32L2 32L2 33L0 33L0 38L1 38L1 39L0 39L0 41L1 41L1 39L2 39L2 41L3 41L3 42L0 42L0 45L1 45L1 44L2 44L2 46L1 46L1 47L0 47L0 49L1 49L1 47L2 47L2 51L0 51L0 53L4 53L4 52L5 52L5 51L7 51L7 52L6 52L6 53L7 53L7 52L8 52L8 55L9 55L9 53L11 53L11 55L12 55L12 56L11 56L11 57L13 57L13 55L12 55L12 54L14 54L14 52L13 52L13 50L14 50L14 51L15 51L15 53L21 53L21 54L23 54L23 53L24 53L24 54L28 54L28 56L27 56L27 57L29 57L29 58L30 58L30 59L27 59L27 60L30 60L30 61L31 61L31 60L33 60L33 61L35 61L35 60L36 60L36 61L38 61L38 60L37 60L37 59L35 59L35 58L34 58L34 59L35 59L35 60L33 60L33 59L31 59L31 58L32 58L32 57L36 57L36 58L38 58L38 59L40 59L40 60L39 60L39 61L40 61L40 60L42 60L42 61L44 61L44 60L46 60L46 59L47 59L47 60L48 60L48 61L49 61L49 60L48 60L48 59L49 59L49 58L50 58L50 59L52 59L52 58L53 58L53 59L54 59L54 60L50 60L50 61L54 61L54 60L55 60L55 61L56 61L56 60L55 60L55 59L54 59L54 58L58 58L58 59L57 59L57 60L58 60L58 61L61 61L61 56L60 56L60 55L61 55L61 54L60 54L60 53L61 53L61 52L58 52L58 51L59 51L59 50L60 50L60 51L61 51L61 50L60 50L60 49L61 49L61 48L60 48L60 47L61 47L61 46L59 46L59 48L58 48L58 47L55 47L55 46L56 46L56 45L57 45L57 44L58 44L58 45L59 45L59 44L60 44L60 45L61 45L61 38L60 38L60 37L61 37L61 34L60 34L60 33L61 33L61 32L58 32L58 31L59 31L59 30L60 30L60 31L61 31L61 30L60 30L60 29L61 29L61 28L60 28L60 27L61 27L61 26L58 26L58 27L59 27L59 28L57 28L57 26L56 26L56 28L55 28L55 27L54 27L54 26L55 26L55 25L56 25L56 24L57 24L57 25L59 25L59 24L60 24L60 25L61 25L61 22L59 22L59 20L60 20L60 21L61 21L61 18L59 18L59 20L58 20L58 18L57 18L57 19L55 19L55 20L52 20L52 18L50 18L50 17L49 17L49 16L46 16L46 15L50 15L50 16L51 16L51 17L52 17L52 16L51 16L51 15L53 15L53 16L55 16L55 17L54 17L54 18L53 18L53 19L54 19L54 18L56 18L56 16L58 16L58 17L59 17L59 16L61 16L61 14L60 14L60 12L61 12L61 10L58 10L58 8L57 8L57 9L56 9L56 8L55 8L55 9L54 9L54 8L52 8L52 9L51 9L51 10L50 10L50 11L52 11L52 9L53 9L53 11L54 11L54 12L58 12L58 13L56 13L56 14L58 14L58 13L59 13L59 14L60 14L60 15L59 15L59 16L58 16L58 15L56 15L56 16L55 16L55 15L54 15L54 14L55 14L55 13L54 13L54 14L49 14L49 13L50 13L50 12L48 12L48 11L49 11L49 10L48 10L48 9L50 9L50 8L51 8L51 5L52 5L52 4L53 4L53 0L51 0L51 2L50 2L50 1L49 1L49 2L50 2L50 4L49 4L49 3L47 3L47 2L48 2L48 0L47 0L47 1L46 1L46 2L44 2L44 1L45 1L45 0L41 0L41 1L43 1L43 2L41 2L41 3L43 3L43 4L41 4L41 5L43 5L43 4L44 4L44 3L45 3L45 4L46 4L46 3L47 3L47 5L45 5L45 6L44 6L44 8L45 8L45 9L47 9L47 10L45 10L45 11L40 11L40 10L43 10L43 9L42 9L42 7L43 7L43 6L42 6L42 7L41 7L41 6L40 6L40 5L36 5L36 4L37 4L37 3L35 3L35 5L36 5L36 7L37 7L37 8L35 8L35 6L34 6L34 9L35 9L35 10L34 10L34 11L33 11L33 12L34 12L34 11L35 11L35 10L36 10L36 9L37 9L37 10L38 10L38 11L36 11L36 12L35 12L35 13L36 13L36 12L38 12L38 13L37 13L37 14L40 14L40 12L41 12L41 13L42 13L42 14L41 14L41 15L40 15L40 16L41 16L41 17L40 17L40 19L39 19L39 18L38 18L38 19L37 19L37 16L38 16L38 15L37 15L37 16L35 16L35 18L34 18L34 16L33 16L33 17L32 17L32 15L31 15L31 16L30 16L30 15L29 15L29 14L30 14L30 13L29 13L29 14L28 14L28 13L24 13L24 12L25 12L25 11L26 11L26 12L28 12L28 11L26 11L26 10L25 10L25 9L30 9L30 10L32 10L32 9L33 9L33 5L34 5L34 4L30 4L30 3L31 3L31 2L30 2L30 3L28 3L28 2L29 2L29 1L34 1L34 2L33 2L33 3L34 3L34 2L39 2L39 1L38 1L38 0L36 0L36 1L34 1L34 0L29 0L29 1L27 1L27 0L26 0L26 1L27 1L27 2L25 2L25 0L24 0L24 1L23 1L23 2L22 2L22 1L18 1L18 0L16 0L16 1L15 1L15 2L16 2L16 4L12 4L12 2L13 2L13 3L14 3L14 2L13 2L13 1L12 1L12 2L11 2L11 1L10 1L10 0ZM9 1L9 2L10 2L10 3L11 3L11 2L10 2L10 1ZM17 1L17 4L16 4L16 6L15 6L15 5L14 5L14 6L13 6L13 5L12 5L12 6L11 6L11 5L10 5L10 6L11 6L11 7L12 7L12 9L13 9L13 10L11 10L11 11L16 11L16 12L17 12L17 13L18 13L18 14L19 14L19 15L18 15L18 16L21 16L21 17L22 17L22 21L15 21L15 23L16 23L16 24L14 24L14 25L12 25L12 23L11 23L11 22L13 22L13 23L14 23L14 22L13 22L13 21L14 21L14 20L15 20L15 19L13 19L13 21L12 21L12 20L11 20L11 21L10 21L10 19L11 19L11 18L10 18L10 17L9 17L9 16L8 16L8 17L9 17L9 22L10 22L10 24L9 24L9 25L10 25L10 26L8 26L8 25L6 25L6 26L7 26L7 27L6 27L6 28L7 28L7 27L8 27L8 28L10 28L10 29L9 29L9 33L6 33L6 34L7 34L7 35L6 35L6 36L7 36L7 35L8 35L8 37L6 37L6 38L7 38L7 39L5 39L5 37L3 37L3 36L2 36L2 34L3 34L3 33L4 33L4 32L3 32L3 30L2 30L2 32L3 32L3 33L2 33L2 34L1 34L1 36L2 36L2 37L3 37L3 38L2 38L2 39L3 39L3 40L7 40L7 41L6 41L6 42L7 42L7 43L6 43L6 44L5 44L5 41L4 41L4 42L3 42L3 43L2 43L2 44L3 44L3 43L4 43L4 44L5 44L5 45L4 45L4 46L3 46L3 47L4 47L4 49L3 49L3 50L4 50L4 49L5 49L5 50L7 50L7 51L8 51L8 50L9 50L9 52L11 52L11 51L12 51L12 50L13 50L13 49L12 49L12 48L11 48L11 46L13 46L13 45L12 45L12 44L13 44L13 42L14 42L14 43L15 43L15 42L16 42L16 43L17 43L17 45L15 45L15 46L17 46L17 45L18 45L18 46L20 46L20 47L15 47L15 48L14 48L14 49L16 49L16 50L15 50L15 51L16 51L16 52L17 52L17 49L18 49L18 50L19 50L19 52L20 52L20 51L21 51L21 53L23 53L23 51L24 51L24 53L27 53L27 51L26 51L26 50L25 50L25 49L27 49L27 50L28 50L28 52L34 52L34 50L35 50L35 51L36 51L36 52L35 52L35 53L36 53L36 52L37 52L37 51L38 51L38 53L37 53L37 54L39 54L39 55L38 55L38 58L40 58L40 59L43 59L43 60L44 60L44 59L43 59L43 58L41 58L41 56L40 56L40 55L44 55L44 58L45 58L45 59L46 59L46 58L49 58L49 57L48 57L48 56L49 56L49 55L50 55L50 54L51 54L51 57L50 57L50 58L52 58L52 53L51 53L51 51L50 51L50 50L52 50L52 51L54 51L54 52L57 52L57 53L58 53L58 54L57 54L57 56L59 56L59 55L60 55L60 54L59 54L59 53L58 53L58 52L57 52L57 51L56 51L56 50L59 50L59 49L60 49L60 48L59 48L59 49L58 49L58 48L57 48L57 49L56 49L56 48L55 48L55 47L54 47L54 45L53 45L53 43L54 43L54 44L55 44L55 45L56 45L56 44L57 44L57 43L58 43L58 44L59 44L59 43L60 43L60 42L59 42L59 41L60 41L60 40L59 40L59 39L60 39L60 38L59 38L59 37L58 37L58 36L59 36L59 35L60 35L60 34L59 34L59 33L58 33L58 32L57 32L57 33L56 33L56 34L55 34L55 33L53 33L53 35L54 35L54 36L55 36L55 35L56 35L56 36L57 36L57 37L55 37L55 39L53 39L53 37L52 37L52 39L50 39L50 38L51 38L51 37L50 37L50 38L49 38L49 39L47 39L47 40L45 40L45 39L46 39L46 38L47 38L47 37L46 37L46 38L44 38L44 37L45 37L45 36L51 36L51 35L45 35L45 34L41 34L41 35L40 35L40 37L39 37L39 35L38 35L38 34L40 34L40 33L41 33L41 32L42 32L42 31L45 31L45 32L43 32L43 33L46 33L46 34L47 34L47 32L46 32L46 31L45 31L45 30L47 30L47 29L46 29L46 28L49 28L49 27L50 27L50 29L49 29L49 30L52 30L52 28L54 28L54 27L52 27L52 28L51 28L51 27L50 27L50 26L51 26L51 25L52 25L52 26L53 26L53 25L52 25L52 24L54 24L54 25L55 25L55 24L56 24L56 23L57 23L57 24L59 24L59 23L58 23L58 20L55 20L55 21L56 21L56 23L55 23L55 22L54 22L54 21L51 21L51 19L50 19L50 18L49 18L49 19L48 19L48 20L47 20L47 19L45 19L45 18L41 18L41 19L40 19L40 20L39 20L39 19L38 19L38 22L37 22L37 23L35 23L35 22L34 22L34 21L33 21L33 20L34 20L34 18L32 18L32 17L30 17L30 16L29 16L29 15L27 15L27 14L25 14L25 17L24 17L24 13L23 13L23 12L24 12L24 10L22 10L22 9L25 9L25 8L26 8L26 6L25 6L25 8L23 8L23 7L24 7L24 6L23 6L23 5L22 5L22 4L25 4L25 5L26 5L26 4L27 4L27 5L28 5L28 4L27 4L27 3L26 3L26 4L25 4L25 3L24 3L24 2L23 2L23 3L22 3L22 4L18 4L18 3L19 3L19 2L18 2L18 1ZM20 2L20 3L21 3L21 2ZM43 2L43 3L44 3L44 2ZM39 3L39 4L40 4L40 3ZM51 3L51 4L52 4L52 3ZM17 4L17 5L18 5L18 7L17 7L17 6L16 6L16 7L17 7L17 8L16 8L16 9L14 9L14 7L15 7L15 6L14 6L14 7L13 7L13 6L12 6L12 7L13 7L13 9L14 9L14 10L16 10L16 11L19 11L19 12L18 12L18 13L19 13L19 14L20 14L20 15L21 15L21 16L22 16L22 17L23 17L23 18L24 18L24 17L23 17L23 13L21 13L21 11L22 11L22 10L21 10L21 9L22 9L22 8L21 8L21 9L19 9L19 8L20 8L20 7L21 7L21 6L20 6L20 7L19 7L19 5L18 5L18 4ZM29 5L29 8L32 8L32 5ZM47 5L47 7L46 7L46 6L45 6L45 8L50 8L50 6L49 6L49 5ZM22 6L22 7L23 7L23 6ZM27 6L27 7L28 7L28 6ZM30 6L30 7L31 7L31 6ZM37 6L37 7L38 7L38 10L40 10L40 9L41 9L41 8L39 8L39 7L40 7L40 6L39 6L39 7L38 7L38 6ZM48 6L48 7L49 7L49 6ZM52 6L52 7L53 7L53 6ZM17 8L17 9L16 9L16 10L17 10L17 9L18 9L18 8ZM59 8L59 9L60 9L60 8ZM19 10L19 11L20 11L20 10ZM47 10L47 11L46 11L46 12L47 12L47 13L46 13L46 14L45 14L45 12L43 12L43 14L42 14L42 15L43 15L43 14L44 14L44 15L46 15L46 14L48 14L48 12L47 12L47 11L48 11L48 10ZM54 10L54 11L55 11L55 10ZM29 11L29 12L32 12L32 11ZM39 11L39 12L40 12L40 11ZM58 11L58 12L60 12L60 11ZM13 12L13 13L15 13L15 12ZM19 12L19 13L20 13L20 14L21 14L21 15L22 15L22 14L21 14L21 13L20 13L20 12ZM51 12L51 13L53 13L53 12ZM31 13L31 14L34 14L34 15L36 15L36 14L34 14L34 13ZM6 15L6 16L4 16L4 17L6 17L6 18L7 18L7 17L6 17L6 16L7 16L7 15ZM26 15L26 16L27 16L27 17L25 17L25 18L28 18L28 19L26 19L26 20L25 20L25 21L22 21L22 22L23 22L23 23L24 23L24 24L23 24L23 25L22 25L22 23L20 23L20 24L19 24L19 25L18 25L18 24L16 24L16 25L14 25L14 26L13 26L13 28L11 28L11 27L12 27L12 26L10 26L10 28L11 28L11 29L10 29L10 30L11 30L11 29L12 29L12 31L11 31L11 32L12 32L12 35L11 35L11 34L8 34L8 35L11 35L11 36L10 36L10 37L11 37L11 38L10 38L10 39L9 39L9 40L11 40L11 39L13 39L13 40L12 40L12 41L13 41L13 40L14 40L14 42L15 42L15 41L17 41L17 42L18 42L18 45L22 45L22 47L21 47L21 48L18 48L18 49L21 49L21 51L22 51L22 49L23 49L23 50L24 50L24 49L25 49L25 47L23 47L23 45L24 45L24 46L25 46L25 45L26 45L26 47L27 47L27 49L28 49L28 50L29 50L29 51L30 51L30 49L32 49L32 48L31 48L31 47L32 47L32 46L30 46L30 47L29 47L29 46L28 46L28 45L31 45L31 44L32 44L32 43L33 43L33 45L34 45L34 44L35 44L35 45L36 45L36 44L38 44L38 45L37 45L37 46L39 46L39 48L35 48L35 50L36 50L36 51L37 51L37 50L38 50L38 51L40 51L40 52L39 52L39 54L44 54L44 53L43 53L43 52L45 52L45 53L49 53L49 54L45 54L45 58L46 58L46 56L48 56L48 55L49 55L49 54L50 54L50 52L46 52L46 51L48 51L48 50L50 50L50 49L52 49L52 50L53 50L53 49L52 49L52 48L53 48L53 47L52 47L52 46L53 46L53 45L52 45L52 44L51 44L51 46L49 46L49 44L48 44L48 43L49 43L49 42L50 42L50 43L51 43L51 42L52 42L52 43L53 43L53 42L52 42L52 40L53 40L53 39L52 39L52 40L50 40L50 41L49 41L49 40L47 40L47 42L46 42L46 41L45 41L45 42L46 42L46 43L44 43L44 44L43 44L43 43L42 43L42 44L41 44L41 43L40 43L40 40L41 40L41 39L40 39L40 40L38 40L38 39L39 39L39 38L36 38L36 37L38 37L38 36L36 36L36 35L37 35L37 34L38 34L38 33L39 33L39 32L41 32L41 31L42 31L42 30L43 30L43 28L45 28L45 26L46 26L46 27L47 27L47 26L48 26L48 27L49 27L49 26L50 26L50 24L52 24L52 23L54 23L54 24L55 24L55 23L54 23L54 22L48 22L48 23L47 23L47 22L46 22L46 21L47 21L47 20L45 20L45 19L41 19L41 20L40 20L40 21L39 21L39 22L38 22L38 23L37 23L37 24L35 24L35 26L34 26L34 27L33 27L33 26L31 26L31 25L30 25L30 24L31 24L31 23L32 23L32 22L33 22L33 23L34 23L34 22L33 22L33 21L32 21L32 20L31 20L31 19L32 19L32 18L31 18L31 19L30 19L30 17L29 17L29 16L27 16L27 15ZM43 16L43 17L46 17L46 18L48 18L48 17L46 17L46 16ZM28 17L28 18L29 18L29 17ZM3 18L3 19L4 19L4 18ZM35 18L35 19L36 19L36 20L35 20L35 21L36 21L36 20L37 20L37 19L36 19L36 18ZM23 19L23 20L24 20L24 19ZM28 19L28 20L29 20L29 21L28 21L28 22L26 22L26 21L27 21L27 20L26 20L26 21L25 21L25 23L26 23L26 24L24 24L24 25L23 25L23 26L22 26L22 25L21 25L21 24L20 24L20 25L19 25L19 26L20 26L20 27L18 27L18 25L16 25L16 27L15 27L15 28L17 28L17 29L15 29L15 31L16 31L16 33L15 33L15 34L16 34L16 33L17 33L17 36L21 36L21 35L20 35L20 34L22 34L22 37L16 37L16 35L15 35L15 36L14 36L14 37L12 37L12 38L13 38L13 39L14 39L14 40L15 40L15 39L16 39L16 40L17 40L17 41L18 41L18 40L17 40L17 39L18 39L18 38L19 38L19 41L21 41L21 42L22 42L22 43L21 43L21 44L22 44L22 45L23 45L23 44L24 44L24 45L25 45L25 44L26 44L26 45L27 45L27 42L28 42L28 41L29 41L29 43L30 43L30 44L31 44L31 43L32 43L32 41L33 41L33 40L34 40L34 42L35 42L35 40L37 40L37 39L35 39L35 37L36 37L36 36L35 36L35 35L36 35L36 34L37 34L37 33L36 33L36 32L37 32L37 31L36 31L36 30L35 30L35 29L36 29L36 28L35 28L35 27L36 27L36 26L39 26L39 25L40 25L40 26L41 26L41 28L39 28L39 27L37 27L37 28L38 28L38 29L37 29L37 30L38 30L38 31L41 31L41 30L42 30L42 28L43 28L43 27L44 27L44 26L45 26L45 24L46 24L46 26L47 26L47 25L48 25L48 24L49 24L49 23L48 23L48 24L47 24L47 23L46 23L46 22L42 22L42 21L45 21L45 20L41 20L41 22L42 22L42 23L41 23L41 24L39 24L39 23L40 23L40 22L39 22L39 23L38 23L38 25L36 25L36 26L35 26L35 27L34 27L34 28L33 28L33 29L34 29L34 30L33 30L33 31L34 31L34 30L35 30L35 31L36 31L36 32L33 32L33 34L35 34L35 35L34 35L34 36L33 36L33 35L32 35L32 34L31 34L31 33L28 33L28 29L27 29L27 28L28 28L28 27L29 27L29 26L28 26L28 25L27 25L27 24L30 24L30 22L29 22L29 21L31 21L31 20L29 20L29 19ZM48 20L48 21L49 21L49 20ZM16 22L16 23L18 23L18 22ZM28 22L28 23L29 23L29 22ZM42 23L42 24L41 24L41 26L43 26L43 25L44 25L44 23ZM0 24L0 25L1 25L1 24ZM32 24L32 25L33 25L33 24ZM42 24L42 25L43 25L43 24ZM24 25L24 26L23 26L23 27L22 27L22 26L21 26L21 28L20 28L20 29L19 29L19 28L18 28L18 27L17 27L17 28L18 28L18 29L17 29L17 30L18 30L18 31L17 31L17 33L22 33L22 32L19 32L19 30L20 30L20 29L22 29L22 30L21 30L21 31L22 31L22 30L23 30L23 33L24 33L24 34L23 34L23 35L24 35L24 36L23 36L23 37L22 37L22 38L23 38L23 37L24 37L24 39L22 39L22 40L21 40L21 41L22 41L22 42L23 42L23 43L22 43L22 44L23 44L23 43L26 43L26 42L25 42L25 41L28 41L28 40L29 40L29 41L31 41L31 39L33 39L33 38L34 38L34 37L33 37L33 36L32 36L32 35L31 35L31 34L30 34L30 35L28 35L28 34L27 34L27 33L25 33L25 29L26 29L26 30L27 30L27 29L26 29L26 27L28 27L28 26L26 26L26 25ZM2 27L2 28L3 28L3 27ZM23 27L23 28L22 28L22 29L23 29L23 30L24 30L24 29L25 29L25 28L24 28L24 27ZM31 27L31 28L32 28L32 27ZM13 28L13 30L14 30L14 28ZM23 28L23 29L24 29L24 28ZM59 28L59 29L57 29L57 31L58 31L58 30L59 30L59 29L60 29L60 28ZM5 29L5 32L8 32L8 29ZM18 29L18 30L19 30L19 29ZM29 29L29 32L32 32L32 29ZM39 29L39 30L41 30L41 29ZM44 29L44 30L45 30L45 29ZM53 29L53 32L56 32L56 29ZM6 30L6 31L7 31L7 30ZM30 30L30 31L31 31L31 30ZM54 30L54 31L55 31L55 30ZM12 31L12 32L13 32L13 33L14 33L14 32L13 32L13 31ZM26 31L26 32L27 32L27 31ZM48 31L48 32L50 32L50 33L49 33L49 34L51 34L51 31ZM57 33L57 34L58 34L58 35L57 35L57 36L58 36L58 35L59 35L59 34L58 34L58 33ZM4 34L4 36L5 36L5 34ZM18 34L18 35L19 35L19 34ZM26 34L26 35L25 35L25 36L24 36L24 37L27 37L27 38L28 38L28 37L30 37L30 36L28 36L28 37L27 37L27 36L26 36L26 35L27 35L27 34ZM54 34L54 35L55 35L55 34ZM41 35L41 38L43 38L43 37L44 37L44 36L45 36L45 35L44 35L44 36L43 36L43 35ZM42 36L42 37L43 37L43 36ZM15 37L15 38L16 38L16 39L17 39L17 38L16 38L16 37ZM32 37L32 38L33 38L33 37ZM57 37L57 38L58 38L58 39L59 39L59 38L58 38L58 37ZM29 38L29 39L31 39L31 38ZM25 39L25 40L22 40L22 41L25 41L25 40L26 40L26 39ZM56 39L56 40L55 40L55 41L54 41L54 43L55 43L55 41L59 41L59 40L57 40L57 39ZM42 40L42 41L41 41L41 42L43 42L43 41L44 41L44 40ZM9 41L9 42L8 42L8 43L10 43L10 46L11 46L11 43L12 43L12 42L11 42L11 43L10 43L10 41ZM38 41L38 42L37 42L37 43L38 43L38 42L39 42L39 41ZM48 41L48 42L49 42L49 41ZM50 41L50 42L51 42L51 41ZM19 42L19 43L20 43L20 42ZM30 42L30 43L31 43L31 42ZM56 42L56 43L57 43L57 42ZM35 43L35 44L36 44L36 43ZM39 43L39 44L40 44L40 46L41 46L41 48L39 48L39 49L38 49L38 50L40 50L40 51L41 51L41 50L42 50L42 51L43 51L43 50L44 50L44 51L45 51L45 49L46 49L46 50L48 50L48 49L47 49L47 48L49 48L49 49L50 49L50 48L52 48L52 47L50 47L50 48L49 48L49 46L48 46L48 44L47 44L47 43L46 43L46 44L47 44L47 45L45 45L45 44L44 44L44 47L45 47L45 48L43 48L43 50L42 50L42 49L41 49L41 48L42 48L42 47L43 47L43 46L41 46L41 44L40 44L40 43ZM6 44L6 45L5 45L5 46L4 46L4 47L5 47L5 46L6 46L6 47L7 47L7 48L6 48L6 49L7 49L7 50L8 50L8 49L7 49L7 48L8 48L8 47L9 47L9 46L8 46L8 44ZM42 44L42 45L43 45L43 44ZM6 45L6 46L7 46L7 45ZM33 46L33 48L34 48L34 47L36 47L36 46ZM45 46L45 47L46 47L46 48L47 48L47 46ZM28 47L28 49L30 49L30 48L29 48L29 47ZM10 48L10 49L11 49L11 50L10 50L10 51L11 51L11 50L12 50L12 49L11 49L11 48ZM21 48L21 49L22 49L22 48ZM23 48L23 49L24 49L24 48ZM54 48L54 49L55 49L55 50L54 50L54 51L55 51L55 50L56 50L56 49L55 49L55 48ZM33 49L33 50L31 50L31 51L33 51L33 50L34 50L34 49ZM36 49L36 50L37 50L37 49ZM40 49L40 50L41 50L41 49ZM3 51L3 52L4 52L4 51ZM25 51L25 52L26 52L26 51ZM12 52L12 53L13 53L13 52ZM40 52L40 53L41 53L41 52ZM29 53L29 56L32 56L32 53ZM33 53L33 54L34 54L34 55L33 55L33 56L34 56L34 55L35 55L35 56L37 56L37 55L36 55L36 54L34 54L34 53ZM53 53L53 56L56 56L56 53ZM17 54L17 55L18 55L18 54ZM19 54L19 55L20 55L20 54ZM30 54L30 55L31 55L31 54ZM54 54L54 55L55 55L55 54ZM21 55L21 57L22 57L22 58L23 58L23 57L24 57L24 58L25 58L25 59L23 59L23 60L25 60L25 61L26 61L26 57L24 57L24 56L26 56L26 55ZM8 56L8 61L10 61L10 58L9 58L9 57L10 57L10 56ZM16 56L16 57L14 57L14 58L15 58L15 59L13 59L13 58L12 58L12 61L13 61L13 60L16 60L16 61L17 61L17 60L18 60L18 61L19 61L19 59L20 59L20 58L19 58L19 57L20 57L20 56L19 56L19 57L18 57L18 56ZM22 56L22 57L23 57L23 56ZM39 56L39 57L40 57L40 56ZM16 57L16 58L18 58L18 57ZM30 57L30 58L31 58L31 57ZM53 57L53 58L54 58L54 57ZM58 57L58 58L59 58L59 59L58 59L58 60L60 60L60 57ZM16 59L16 60L17 60L17 59ZM21 59L21 60L20 60L20 61L21 61L21 60L22 60L22 59ZM0 0L0 7L7 7L7 0ZM1 1L1 6L6 6L6 1ZM2 2L2 5L5 5L5 2ZM54 0L54 7L61 7L61 0ZM55 1L55 6L60 6L60 1ZM56 2L56 5L59 5L59 2ZM0 54L0 61L7 61L7 54ZM1 55L1 60L6 60L6 55ZM2 56L2 59L5 59L5 56Z" fill="#000000"/></g></g></svg>
